{
  "accessors": [
    {
      "bufferView": 2,
      "componentType": 5126,
      "count": 2,
      "max": [
        3518.320068359375,
        2302.0,
        34.5
      ],
      "min": [
        3518.320068359375,
        2302.0,
        1.6604000618002102e-13
      ],
      "type": "VEC3"
    },
    {
      "bufferView": 0,
      "componentType": 5125,
      "count": 2,
      "type": "SCALAR"
    },
    {
      "bufferView": 2,
      "byteOffset": 24,
      "componentType": 5126,
      "count": 50,
      "max": [
        4279.89990234375,
        3198.35009765625,
        213.89999389648438
      ],
      "min": [
        3549.75,
        2468.199951171875,
        213.89999389648438
      ],
      "type": "VEC3"
    },
    {
      "bufferView": 2,
      "byteOffset": 624,
      "componentType": 5126,
      "count": 50,
      "max": [
        9.896619797411448e-17,
        -4.3061500677183523e-17,
        1.0
      ],
      "min": [
        9.896619797411448e-17,
        -4.3061500677183523e-17,
        1.0
      ],
      "type": "VEC3"
    },
    {
      "bufferView": 1,
      "componentType": 5126,
      "count": 50,
      "max": [
        204.28199768066406,
        124.98300170898438
      ],
      "min": [
        79.29869842529297,
        -3.506679873336953e-16
      ],
      "type": "VEC2"
    },
    {
      "bufferView": 0,
      "byteOffset": 8,
      "componentType": 5125,
      "count": 150,
      "type": "SCALAR"
    },
    {
      "bufferView": 2,
      "byteOffset": 1224,
      "componentType": 5126,
      "count": 343,
      "max": [
        4274.10986328125,
        3785.75,
        1561.1500244140625
      ],
      "min": [
        3782.0400390625,
        2436.64990234375,
        538.1649780273438
      ],
      "type": "VEC3"
    },
    {
      "bufferView": 2,
      "byteOffset": 5340,
      "componentType": 5126,
      "count": 343,
      "max": [
        1.0,
        0.9914448857307434,
        1.0
      ],
      "min": [
        -1.0,
        -1.0,
        -1.0
      ],
      "type": "VEC3"
    },
    {
      "bufferView": 1,
      "byteOffset": 400,
      "componentType": 5126,
      "count": 343,
      "max": [
        275.8160095214844,
        259.34698486328125
      ],
      "min": [
        -267.0830078125,
        -249.63699340820313
      ],
      "type": "VEC2"
    },
    {
      "bufferView": 0,
      "byteOffset": 608,
      "componentType": 5125,
      "count": 669,
      "type": "SCALAR"
    },
    {
      "bufferView": 2,
      "byteOffset": 9456,
      "componentType": 5126,
      "count": 1686,
      "max": [
        4519.47021484375,
        3441.530029296875,
        702.8419799804688
      ],
      "min": [
        3518.320068359375,
        2302.0,
        0.0
      ],
      "type": "VEC3"
    },
    {
      "bufferView": 2,
      "byteOffset": 29688,
      "componentType": 5126,
      "count": 1686,
      "max": [
        1.0,
        1.0,
        1.0
      ],
      "min": [
        -1.0,
        -1.0,
        -1.0
      ],
      "type": "VEC3"
    },
    {
      "bufferView": 1,
      "byteOffset": 3144,
      "componentType": 5126,
      "count": 1686,
      "max": [
        220.98500061035156,
        139.7030029296875
      ],
      "min": [
        -220.98500061035156,
        -7.5164899826049805
      ],
      "type": "VEC2"
    },
    {
      "bufferView": 0,
      "byteOffset": 3284,
      "componentType": 5125,
      "count": 3666,
      "type": "SCALAR"
    },
    {
      "bufferView": 2,
      "byteOffset": 49920,
      "componentType": 5126,
      "count": 960,
      "max": [
        4101.39013671875,
        3789.070068359375,
        1684.4000244140625
      ],
      "min": [
        3738.2099609375,
        2095.469970703125,
        446.64300537109375
      ],
      "type": "VEC3"
    },
    {
      "bufferView": 2,
      "byteOffset": 61440,
      "componentType": 5126,
      "count": 960,
      "max": [
        0.9999241232872009,
        1.0,
        1.0
      ],
      "min": [
        -1.0,
        -0.9999241232872009,
        -1.0
      ],
      "type": "VEC3"
    },
    {
      "bufferView": 1,
      "byteOffset": 16632,
      "componentType": 5126,
      "count": 960,
      "max": [
        49.94240188598633,
        30.70870018005371
      ],
      "min": [
        -49.94240188598633,
        -15.143199920654297
      ],
      "type": "VEC2"
    },
    {
      "bufferView": 0,
      "byteOffset": 17948,
      "componentType": 5125,
      "count": 1854,
      "type": "SCALAR"
    },
    {
      "bufferView": 2,
      "byteOffset": 72960,
      "componentType": 5126,
      "count": 1108,
      "max": [
        3889.469970703125,
        2908.300048828125,
        1562.1500244140625
      ],
      "min": [
        3882.239990234375,
        2638.830078125,
        1532.81005859375
      ],
      "type": "VEC3"
    },
    {
      "bufferView": 0,
      "byteOffset": 25364,
      "componentType": 5125,
      "count": 2326,
      "type": "SCALAR"
    },
    {
      "bufferView": 2,
      "byteOffset": 86256,
      "componentType": 5126,
      "count": 3470,
      "max": [
        4087.9599609375,
        2908.300048828125,
        1647.6500244140625
      ],
      "min": [
        3859.179931640625,
        2078.889892578125,
        1418.8699951171875
      ],
      "type": "VEC3"
    },
    {
      "bufferView": 2,
      "byteOffset": 127896,
      "componentType": 5126,
      "count": 3470,
      "max": [
        1.0,
        1.0,
        0.9914448857307434
      ],
      "min": [
        -0.9914448857307434,
        -1.0,
        -0.9914448857307434
      ],
      "type": "VEC3"
    },
    {
      "bufferView": 1,
      "byteOffset": 24312,
      "componentType": 5126,
      "count": 3470,
      "max": [
        257.5899963378906,
        82.01709747314453
      ],
      "min": [
        -257.5899963378906,
        -26.84149932861328
      ],
      "type": "VEC2"
    },
    {
      "bufferView": 0,
      "byteOffset": 34668,
      "componentType": 5125,
      "count": 6894,
      "type": "SCALAR"
    },
    {
      "bufferView": 2,
      "byteOffset": 169536,
      "componentType": 5126,
      "count": 258,
      "max": [
        4101.39013671875,
        3751.830078125,
        1684.4000244140625
      ],
      "min": [
        3756.5,
        2542.8798828125,
        446.64300537109375
      ],
      "type": "VEC3"
    },
    {
      "bufferView": 0,
      "byteOffset": 62244,
      "componentType": 5125,
      "count": 578,
      "type": "SCALAR"
    },
    {
      "bufferView": 2,
      "byteOffset": 172632,
      "componentType": 5126,
      "count": 1050,
      "max": [
        4093.39990234375,
        3809.77001953125,
        1676.75
      ],
      "min": [
        3717.510009765625,
        2550.860107421875,
        621.5239868164063
      ],
      "type": "VEC3"
    },
    {
      "bufferView": 2,
      "byteOffset": 185232,
      "componentType": 5126,
      "count": 1050,
      "max": [
        0.9999241232872009,
        1.0,
        1.0
      ],
      "min": [
        -1.0,
        -1.0,
        -1.0
      ],
      "type": "VEC3"
    },
    {
      "bufferView": 1,
      "byteOffset": 52072,
      "componentType": 5126,
      "count": 1050,
      "max": [
        38.98040008544922,
        34.25199890136719
      ],
      "min": [
        -38.98040008544922,
        0.0
      ],
      "type": "VEC2"
    },
    {
      "bufferView": 0,
      "byteOffset": 64556,
      "componentType": 5125,
      "count": 2064,
      "type": "SCALAR"
    },
    {
      "bufferView": 2,
      "byteOffset": 197832,
      "componentType": 5126,
      "count": 5559,
      "max": [
        4540.169921875,
        3911.239990234375,
        1697.449951171875
      ],
      "min": [
        3549.75,
        2099.949951171875,
        193.1999969482422
      ],
      "type": "VEC3"
    },
    {
      "bufferView": 0,
      "byteOffset": 72812,
      "componentType": 5125,
      "count": 11530,
      "type": "SCALAR"
    },
    {
      "bufferView": 2,
      "byteOffset": 264540,
      "componentType": 5126,
      "count": 4546,
      "max": [
        4519.47021484375,
        3661.6201171875,
        1607.77001953125
      ],
      "min": [
        3744.469970703125,
        2078.889892578125,
        411.3800048828125
      ],
      "type": "VEC3"
    },
    {
      "bufferView": 2,
      "byteOffset": 319092,
      "componentType": 5126,
      "count": 4546,
      "max": [
        1.0,
        1.0,
        1.0
      ],
      "min": [
        -1.0,
        -1.0,
        -1.0
      ],
      "type": "VEC3"
    },
    {
      "bufferView": 1,
      "byteOffset": 60472,
      "componentType": 5126,
      "count": 4546,
      "max": [
        141.37100219726563,
        142.3040008544922
      ],
      "min": [
        -141.0850067138672,
        -44.03409957885742
      ],
      "type": "VEC2"
    },
    {
      "bufferView": 0,
      "byteOffset": 118932,
      "componentType": 5125,
      "count": 9120,
      "type": "SCALAR"
    },
    {
      "bufferView": 2,
      "byteOffset": 373644,
      "componentType": 5126,
      "count": 5938,
      "max": [
        4424.830078125,
        3872.1298828125,
        1491.0699462890625
      ],
      "min": [
        3965.27001953125,
        2395.1298828125,
        470.5509948730469
      ],
      "type": "VEC3"
    },
    {
      "bufferView": 2,
      "byteOffset": 444900,
      "componentType": 5126,
      "count": 5938,
      "max": [
        1.0,
        0.9998343586921692,
        1.0
      ],
      "min": [
        -1.0,
        -0.9999946355819702,
        -1.0
      ],
      "type": "VEC3"
    },
    {
      "bufferView": 1,
      "byteOffset": 96840,
      "componentType": 5126,
      "count": 5938,
      "max": [
        282.9219970703125,
        283.9010009765625
      ],
      "min": [
        -282.9219970703125,
        -271.4309997558594
      ],
      "type": "VEC2"
    },
    {
      "bufferView": 0,
      "byteOffset": 155412,
      "componentType": 5125,
      "count": 12153,
      "type": "SCALAR"
    },
    {
      "bufferView": 2,
      "byteOffset": 516156,
      "componentType": 5126,
      "count": 5609,
      "max": [
        4540.169921875,
        3241.2099609375,
        865.8099975585938
      ],
      "min": [
        3581.419921875,
        2385.6201171875,
        213.89999389648438
      ],
      "type": "VEC3"
    },
    {
      "bufferView": 2,
      "byteOffset": 583464,
      "componentType": 5126,
      "count": 5609,
      "max": [
        1.0,
        1.0,
        1.0
      ],
      "min": [
        -1.0,
        -1.0,
        -1.0
      ],
      "type": "VEC3"
    },
    {
      "bufferView": 1,
      "byteOffset": 144344,
      "componentType": 5126,
      "count": 5609,
      "max": [
        230.4029998779297,
        204.5749969482422
      ],
      "min": [
        -230.4029998779297,
        -183.04100036621094
      ],
      "type": "VEC2"
    },
    {
      "bufferView": 0,
      "byteOffset": 204024,
      "componentType": 5125,
      "count": 11355,
      "type": "SCALAR"
    },
    {
      "bufferView": 2,
      "byteOffset": 650772,
      "componentType": 5126,
      "count": 7786,
      "max": [
        4432.43994140625,
        3911.239990234375,
        1697.449951171875
      ],
      "min": [
        3769.52001953125,
        2100.5,
        366.2659912109375
      ],
      "type": "VEC3"
    },
    {
      "bufferView": 2,
      "byteOffset": 744204,
      "componentType": 5126,
      "count": 7786,
      "max": [
        1.0,
        1.0,
        1.0
      ],
      "min": [
        -1.0,
        -1.0,
        -1.0
      ],
      "type": "VEC3"
    },
    {
      "bufferView": 1,
      "byteOffset": 189216,
      "componentType": 5126,
      "count": 7786,
      "max": [
        309.9519958496094,
        308.8940124511719
      ],
      "min": [
        -309.9519958496094,
        -290.114990234375
      ],
      "type": "VEC2"
    },
    {
      "bufferView": 0,
      "byteOffset": 249444,
      "componentType": 5125,
      "count": 13827,
      "type": "SCALAR"
    },
    {
      "bufferView": 2,
      "byteOffset": 837636,
      "componentType": 5126,
      "count": 41,
      "max": [
        4116.41015625,
        3034.8701171875,
        1582.800048828125
      ],
      "min": [
        3713.22998046875,
        2099.949951171875,
        264.5
      ],
      "type": "VEC3"
    },
    {
      "bufferView": 2,
      "byteOffset": 838128,
      "componentType": 5126,
      "count": 41,
      "max": [
        1.0,
        8.307060145014769e-14,
        1.0
      ],
      "min": [
        9.516429720780845e-17,
        -4.656559987935821e-17,
        3.0828566215145976e-44
      ],
      "type": "VEC3"
    },
    {
      "bufferView": 1,
      "byteOffset": 251504,
      "componentType": 5126,
      "count": 41,
      "max": [
        176.2969970703125,
        96.99829864501953
      ],
      "min": [
        -40.49359893798828,
        1.4294099807739258
      ],
      "type": "VEC2"
    },
    {
      "bufferView": 0,
      "byteOffset": 304752,
      "componentType": 5125,
      "count": 117,
      "type": "SCALAR"
    }
  ],
  "asset": {
    "extras": {
      "author": "MaaB (https://sketchfab.com/MaaB)",
      "license": "CC-BY-4.0 (http://creativecommons.org/licenses/by/4.0/)",
      "source": "https://sketchfab.com/3d-models/robot-industrial-fanuc-a18eacc67af044deb9788dc48d7c3dda",
      "title": "Robot Industrial - FANUC"
    },
    "generator": "Sketchfab-15.29.0",
    "version": "2.0"
  },
  "bufferViews": [
    {
      "buffer": 0,
      "byteLength": 305220,
      "name": "floatBufferViews",
      "target": 34963
    },
    {
      "buffer": 0,
      "byteLength": 251832,
      "byteOffset": 305220,
      "byteStride": 8,
      "name": "floatBufferViews",
      "target": 34962
    },
    {
      "buffer": 0,
      "byteLength": 838620,
      "byteOffset": 557052,
      "byteStride": 12,
      "name": "floatBufferViews",
      "target": 34962
    }
  ],
  "buffers": [
    {
      "byteLength": 1395672,
      "uri": "scene.bin"
    }
  ],
  "materials": [
    {
      "doubleSided": true,
      "name": "Color_003",
      "pbrMetallicRoughness": {
        "baseColorFactor": [
          0.26651984652910465,
          0.26651984652910465,
          0.26651984652910465,
          1.0
        ],
        "metallicFactor": 0.0,
        "roughnessFactor": 0.6
      }
    },
    {
      "doubleSided": true,
      "name": "Color_006",
      "pbrMetallicRoughness": {
        "baseColorFactor": [
          0.024031858959787163,
          0.024031858959787163,
          0.024031858959787163,
          1.0
        ],
        "metallicFactor": 0.0,
        "roughnessFactor": 0.6
      }
    },
    {
      "doubleSided": true,
      "name": "Color_007",
      "pbrMetallicRoughness": {
        "baseColorFactor": [
          0.0314744365057738,
          0.0314744365057738,
          0.0314744365057738,
          1.0
        ],
        "metallicFactor": 0.0,
        "roughnessFactor": 0.6
      }
    },
    {
      "doubleSided": true,
      "name": "Color_008",
      "pbrMetallicRoughness": {
        "baseColorFactor": [
          0.0314744365057738,
          0.0314744365057738,
          0.0314744365057738,
          1.0
        ],
        "metallicFactor": 0.0,
        "roughnessFactor": 0.6
      }
    },
    {
      "doubleSided": true,
      "name": "Color_009",
      "pbrMetallicRoughness": {
        "baseColorFactor": [
          0.019708368943048015,
          0.019708368943048015,
          0.019708368943048015,
          1.0
        ],
        "metallicFactor": 0.0,
        "roughnessFactor": 0.6
      }
    },
    {
      "doubleSided": true,
      "name": "Color_A02",
      "pbrMetallicRoughness": {
        "baseColorFactor": [
          1.0,
          0.0030822762267459346,
          0.0030822762267459346,
          1.0
        ],
        "metallicFactor": 0.0,
        "roughnessFactor": 0.6
      }
    },
    {
      "doubleSided": true,
      "name": "Color_D01",
      "pbrMetallicRoughness": {
        "baseColorFactor": [
          1.0,
          0.812499070729192,
          0.010299700791112492,
          1.0
        ],
        "metallicFactor": 0.0,
        "roughnessFactor": 0.6
      }
    },
    {
      "doubleSided": true,
      "name": "FrontColor",
      "pbrMetallicRoughness": {
        "metallicFactor": 0.0,
        "roughnessFactor": 0.6
      }
    }
  ],
  "meshes": [
    {
      "name": "Object_0",
      "primitives": [
        {
          "attributes": {
            "POSITION": 0
          },
          "indices": 1,
          "material": 1,
          "mode": 1
        }
      ]
    },
    {
      "name": "Object_1",
      "primitives": [
        {
          "attributes": {
            "NORMAL": 3,
            "POSITION": 2,
            "TEXCOORD_0": 4
          },
          "indices": 5,
          "material": 2,
          "mode": 4
        }
      ]
    },
    {
      "name": "Object_2",
      "primitives": [
        {
          "attributes": {
            "NORMAL": 7,
            "POSITION": 6,
            "TEXCOORD_0": 8
          },
          "indices": 9,
          "material": 0,
          "mode": 4
        }
      ]
    },
    {
      "name": "Object_3",
      "primitives": [
        {
          "attributes": {
            "NORMAL": 11,
            "POSITION": 10,
            "TEXCOORD_0": 12
          },
          "indices": 13,
          "material": 1,
          "mode": 4
        }
      ]
    },
    {
      "name": "Object_4",
      "primitives": [
        {
          "attributes": {
            "NORMAL": 15,
            "POSITION": 14,
            "TEXCOORD_0": 16
          },
          "indices": 17,
          "material": 3,
          "mode": 4
        }
      ]
    },
    {
      "name": "Object_5",
      "primitives": [
        {
          "attributes": {
            "POSITION": 18
          },
          "indices": 19,
          "material": 4,
          "mode": 1
        }
      ]
    },
    {
      "name": "Object_6",
      "primitives": [
        {
          "attributes": {
            "NORMAL": 21,
            "POSITION": 20,
            "TEXCOORD_0": 22
          },
          "indices": 23,
          "material": 4,
          "mode": 4
        }
      ]
    },
    {
      "name": "Object_7",
      "primitives": [
        {
          "attributes": {
            "POSITION": 24
          },
          "indices": 25,
          "material": 5,
          "mode": 1
        }
      ]
    },
    {
      "name": "Object_8",
      "primitives": [
        {
          "attributes": {
            "NORMAL": 27,
            "POSITION": 26,
            "TEXCOORD_0": 28
          },
          "indices": 29,
          "material": 5,
          "mode": 4
        }
      ]
    },
    {
      "name": "Object_9",
      "primitives": [
        {
          "attributes": {
            "POSITION": 30
          },
          "indices": 31,
          "material": 6,
          "mode": 1
        }
      ]
    },
    {
      "name": "Object_10",
      "primitives": [
        {
          "attributes": {
            "NORMAL": 33,
            "POSITION": 32,
            "TEXCOORD_0": 34
          },
          "indices": 35,
          "material": 6,
          "mode": 4
        }
      ]
    },
    {
      "name": "Object_11",
      "primitives": [
        {
          "attributes": {
            "NORMAL": 37,
            "POSITION": 36,
            "TEXCOORD_0": 38
          },
          "indices": 39,
          "material": 6,
          "mode": 4
        }
      ]
    },
    {
      "name": "Object_12",
      "primitives": [
        {
          "attributes": {
            "NORMAL": 41,
            "POSITION": 40,
            "TEXCOORD_0": 42
          },
          "indices": 43,
          "material": 6,
          "mode": 4
        }
      ]
    },
    {
      "name": "Object_13",
      "primitives": [
        {
          "attributes": {
            "NORMAL": 45,
            "POSITION": 44,
            "TEXCOORD_0": 46
          },
          "indices": 47,
          "material": 6,
          "mode": 4
        }
      ]
    },
    {
      "name": "Object_14",
      "primitives": [
        {
          "attributes": {
            "NORMAL": 49,
            "POSITION": 48,
            "TEXCOORD_0": 50
          },
          "indices": 51,
          "material": 7,
          "mode": 4
        }
      ]
    }
  ],
  "nodes": [
    {
      "children": [
        1
      ],
      "matrix": [
        1.0,
        0.0,
        0.0,
        0.0,
        0.0,
        2.220446049250313e-16,
        -1.0,
        0.0,
        0.0,
        1.0,
        2.220446049250313e-16,
        0.0,
        0.0,
        0.0,
        0.0,
        1.0
      ],
      "name": "Sketchfab_model"
    },
    {
      "children": [
        2,
        3,
        4,
        5,
        6,
        7,
        8,
        9,
        10,
        11,
        12,
        13,
        14,
        15,
        16
      ],
      "name": "Robots 02 - FANUC.obj.cleaner.materialmerger.gles"
    },
    {
      "mesh": 0,
      "name": "Object_2"
    },
    {
      "mesh": 1,
      "name": "Object_3"
    },
    {
      "mesh": 2,
      "name": "Object_4"
    },
    {
      "mesh": 3,
      "name": "Object_5"
    },
    {
      "mesh": 4,
      "name": "Object_6"
    },
    {
      "mesh": 5,
      "name": "Object_7"
    },
    {
      "mesh": 6,
      "name": "Object_8"
    },
    {
      "mesh": 7,
      "name": "Object_9"
    },
    {
      "mesh": 8,
      "name": "Object_10"
    },
    {
      "mesh": 9,
      "name": "Object_11"
    },
    {
      "mesh": 10,
      "name": "Object_12"
    },
    {
      "mesh": 11,
      "name": "Object_13"
    },
    {
      "mesh": 12,
      "name": "Object_14"
    },
    {
      "mesh": 13,
      "name": "Object_15"
    },
    {
      "mesh": 14,
      "name": "Object_16"
    }
  ],
  "scene": 0,
  "scenes": [
    {
      "name": "Sketchfab_Scene",
      "nodes": [
        0
      ]
    }
  ]
}
